<svg class="rich-terminal" viewBox="0 0 1995 1050.4" xmlns="http://www.w3.org/2000/svg">
    <!-- Generated with Rich https://www.textualize.io -->
    <style>

    @font-face {
        font-family: "Fira Code";
        src: local("FiraCode-Regular"),
                url("https://cdnjs.cloudflare.com/ajax/libs/firacode/6.2.0/woff2/FiraCode-Regular.woff2") format("woff2"),
                url("https://cdnjs.cloudflare.com/ajax/libs/firacode/6.2.0/woff/FiraCode-Regular.woff") format("woff");
        font-style: normal;
        font-weight: 400;
    }
    @font-face {
        font-family: "Fira Code";
        src: local("FiraCode-Bold"),
                url("https://cdnjs.cloudflare.com/ajax/libs/firacode/6.2.0/woff2/FiraCode-Bold.woff2") format("woff2"),
                url("https://cdnjs.cloudflare.com/ajax/libs/firacode/6.2.0/woff/FiraCode-Bold.woff") format("woff");
        font-style: bold;
        font-weight: 700;
    }

    .terminal-1831001514-matrix {
        font-family: Fira Code, monospace;
        font-size: 20px;
        line-height: 24.4px;
        font-variant-east-asian: full-width;
    }

    .terminal-1831001514-title {
        font-size: 18px;
        font-weight: bold;
        font-family: arial;
    }

    .terminal-1831001514-r1 { fill: #c5c8c6 }
.terminal-1831001514-r2 { fill: #e3e3e3 }
.terminal-1831001514-r3 { fill: #989898 }
.terminal-1831001514-r4 { fill: #c9c9c9 }
.terminal-1831001514-r5 { fill: #e1e1e1 }
.terminal-1831001514-r6 { fill: #008000 }
.terminal-1831001514-r7 { fill: #dde6ed;font-weight: bold }
.terminal-1831001514-r8 { fill: #dde6ed }
.terminal-1831001514-r9 { fill: #211505 }
.terminal-1831001514-r10 { fill: #e1e2e3 }
.terminal-1831001514-r11 { fill: #dde8f3;font-weight: bold }
.terminal-1831001514-r12 { fill: #ddedf9 }
    </style>

    <defs>
    <clipPath id="terminal-1831001514-clip-terminal">
      <rect x="0" y="0" width="1975.3999999999999" height="999.4" />
    </clipPath>
    <clipPath id="terminal-1831001514-line-0">
    <rect x="0" y="1.5" width="1976.4" height="24.65"/>
            </clipPath>
<clipPath id="terminal-1831001514-line-1">
    <rect x="0" y="25.9" width="1976.4" height="24.65"/>
            </clipPath>
<clipPath id="terminal-1831001514-line-2">
    <rect x="0" y="50.3" width="1976.4" height="24.65"/>
            </clipPath>
<clipPath id="terminal-1831001514-line-3">
    <rect x="0" y="74.7" width="1976.4" height="24.65"/>
            </clipPath>
<clipPath id="terminal-1831001514-line-4">
    <rect x="0" y="99.1" width="1976.4" height="24.65"/>
            </clipPath>
<clipPath id="terminal-1831001514-line-5">
    <rect x="0" y="123.5" width="1976.4" height="24.65"/>
            </clipPath>
<clipPath id="terminal-1831001514-line-6">
    <rect x="0" y="147.9" width="1976.4" height="24.65"/>
            </clipPath>
<clipPath id="terminal-1831001514-line-7">
    <rect x="0" y="172.3" width="1976.4" height="24.65"/>
            </clipPath>
<clipPath id="terminal-1831001514-line-8">
    <rect x="0" y="196.7" width="1976.4" height="24.65"/>
            </clipPath>
<clipPath id="terminal-1831001514-line-9">
    <rect x="0" y="221.1" width="1976.4" height="24.65"/>
            </clipPath>
<clipPath id="terminal-1831001514-line-10">
    <rect x="0" y="245.5" width="1976.4" height="24.65"/>
            </clipPath>
<clipPath id="terminal-1831001514-line-11">
    <rect x="0" y="269.9" width="1976.4" height="24.65"/>
            </clipPath>
<clipPath id="terminal-1831001514-line-12">
    <rect x="0" y="294.3" width="1976.4" height="24.65"/>
            </clipPath>
<clipPath id="terminal-1831001514-line-13">
    <rect x="0" y="318.7" width="1976.4" height="24.65"/>
            </clipPath>
<clipPath id="terminal-1831001514-line-14">
    <rect x="0" y="343.1" width="1976.4" height="24.65"/>
            </clipPath>
<clipPath id="terminal-1831001514-line-15">
    <rect x="0" y="367.5" width="1976.4" height="24.65"/>
            </clipPath>
<clipPath id="terminal-1831001514-line-16">
    <rect x="0" y="391.9" width="1976.4" height="24.65"/>
            </clipPath>
<clipPath id="terminal-1831001514-line-17">
    <rect x="0" y="416.3" width="1976.4" height="24.65"/>
            </clipPath>
<clipPath id="terminal-1831001514-line-18">
    <rect x="0" y="440.7" width="1976.4" height="24.65"/>
            </clipPath>
<clipPath id="terminal-1831001514-line-19">
    <rect x="0" y="465.1" width="1976.4" height="24.65"/>
            </clipPath>
<clipPath id="terminal-1831001514-line-20">
    <rect x="0" y="489.5" width="1976.4" height="24.65"/>
            </clipPath>
<clipPath id="terminal-1831001514-line-21">
    <rect x="0" y="513.9" width="1976.4" height="24.65"/>
            </clipPath>
<clipPath id="terminal-1831001514-line-22">
    <rect x="0" y="538.3" width="1976.4" height="24.65"/>
            </clipPath>
<clipPath id="terminal-1831001514-line-23">
    <rect x="0" y="562.7" width="1976.4" height="24.65"/>
            </clipPath>
<clipPath id="terminal-1831001514-line-24">
    <rect x="0" y="587.1" width="1976.4" height="24.65"/>
            </clipPath>
<clipPath id="terminal-1831001514-line-25">
    <rect x="0" y="611.5" width="1976.4" height="24.65"/>
            </clipPath>
<clipPath id="terminal-1831001514-line-26">
    <rect x="0" y="635.9" width="1976.4" height="24.65"/>
            </clipPath>
<clipPath id="terminal-1831001514-line-27">
    <rect x="0" y="660.3" width="1976.4" height="24.65"/>
            </clipPath>
<clipPath id="terminal-1831001514-line-28">
    <rect x="0" y="684.7" width="1976.4" height="24.65"/>
            </clipPath>
<clipPath id="terminal-1831001514-line-29">
    <rect x="0" y="709.1" width="1976.4" height="24.65"/>
            </clipPath>
<clipPath id="terminal-1831001514-line-30">
    <rect x="0" y="733.5" width="1976.4" height="24.65"/>
            </clipPath>
<clipPath id="terminal-1831001514-line-31">
    <rect x="0" y="757.9" width="1976.4" height="24.65"/>
            </clipPath>
<clipPath id="terminal-1831001514-line-32">
    <rect x="0" y="782.3" width="1976.4" height="24.65"/>
            </clipPath>
<clipPath id="terminal-1831001514-line-33">
    <rect x="0" y="806.7" width="1976.4" height="24.65"/>
            </clipPath>
<clipPath id="terminal-1831001514-line-34">
    <rect x="0" y="831.1" width="1976.4" height="24.65"/>
            </clipPath>
<clipPath id="terminal-1831001514-line-35">
    <rect x="0" y="855.5" width="1976.4" height="24.65"/>
            </clipPath>
<clipPath id="terminal-1831001514-line-36">
    <rect x="0" y="879.9" width="1976.4" height="24.65"/>
            </clipPath>
<clipPath id="terminal-1831001514-line-37">
    <rect x="0" y="904.3" width="1976.4" height="24.65"/>
            </clipPath>
<clipPath id="terminal-1831001514-line-38">
    <rect x="0" y="928.7" width="1976.4" height="24.65"/>
            </clipPath>
<clipPath id="terminal-1831001514-line-39">
    <rect x="0" y="953.1" width="1976.4" height="24.65"/>
            </clipPath>
    </defs>

    <rect fill="#292929" stroke="rgba(255,255,255,0.35)" stroke-width="1" x="1" y="1" width="1993" height="1048.4" rx="8"/><text class="terminal-1831001514-title" fill="#c5c8c6" text-anchor="middle" x="996" y="27">Outliers&#160;Summary</text>
            <g transform="translate(26,22)">
            <circle cx="0" cy="0" r="7" fill="#ff5f57"/>
            <circle cx="22" cy="0" r="7" fill="#febc2e"/>
            <circle cx="44" cy="0" r="7" fill="#28c840"/>
            </g>
        
    <g transform="translate(9, 41)" clip-path="url(#terminal-1831001514-clip-terminal)">
    <rect fill="#282828" x="0" y="1.5" width="12.2" height="24.65" shape-rendering="crispEdges"/><rect fill="#282828" x="12.2" y="1.5" width="12.2" height="24.65" shape-rendering="crispEdges"/><rect fill="#282828" x="24.4" y="1.5" width="61" height="24.65" shape-rendering="crispEdges"/><rect fill="#282828" x="85.4" y="1.5" width="12.2" height="24.65" shape-rendering="crispEdges"/><rect fill="#282828" x="97.6" y="1.5" width="683.2" height="24.65" shape-rendering="crispEdges"/><rect fill="#282828" x="780.8" y="1.5" width="231.8" height="24.65" shape-rendering="crispEdges"/><rect fill="#282828" x="1012.6" y="1.5" width="146.4" height="24.65" shape-rendering="crispEdges"/><rect fill="#282828" x="1159" y="1.5" width="695.4" height="24.65" shape-rendering="crispEdges"/><rect fill="#303030" x="1854.4" y="1.5" width="12.2" height="24.65" shape-rendering="crispEdges"/><rect fill="#303030" x="1866.6" y="1.5" width="0" height="24.65" shape-rendering="crispEdges"/><rect fill="#303030" x="1866.6" y="1.5" width="97.6" height="24.65" shape-rendering="crispEdges"/><rect fill="#303030" x="1964.2" y="1.5" width="12.2" height="24.65" shape-rendering="crispEdges"/><rect fill="#282828" x="0" y="25.9" width="12.2" height="24.65" shape-rendering="crispEdges"/><rect fill="#282828" x="12.2" y="25.9" width="73.2" height="24.65" shape-rendering="crispEdges"/><rect fill="#282828" x="85.4" y="25.9" width="12.2" height="24.65" shape-rendering="crispEdges"/><rect fill="#282828" x="97.6" y="25.9" width="1756.8" height="24.65" shape-rendering="crispEdges"/><rect fill="#303030" x="1854.4" y="25.9" width="12.2" height="24.65" shape-rendering="crispEdges"/><rect fill="#303030" x="1866.6" y="25.9" width="97.6" height="24.65" shape-rendering="crispEdges"/><rect fill="#303030" x="1964.2" y="25.9" width="12.2" height="24.65" shape-rendering="crispEdges"/><rect fill="#1e1e1e" x="0" y="50.3" width="158.6" height="24.65" shape-rendering="crispEdges"/><rect fill="#1e1e1e" x="158.6" y="50.3" width="1817.8" height="24.65" shape-rendering="crispEdges"/><rect fill="#1e1e1e" x="0" y="74.7" width="12.2" height="24.65" shape-rendering="crispEdges"/><rect fill="#1e1e1e" x="12.2" y="74.7" width="1952" height="24.65" shape-rendering="crispEdges"/><rect fill="#1e1e1e" x="1964.2" y="74.7" width="12.2" height="24.65" shape-rendering="crispEdges"/><rect fill="#1e1e1e" x="0" y="99.1" width="12.2" height="24.65" shape-rendering="crispEdges"/><rect fill="#004578" x="12.2" y="99.1" width="61" height="24.65" shape-rendering="crispEdges"/><rect fill="#004578" x="73.2" y="99.1" width="61" height="24.65" shape-rendering="crispEdges"/><rect fill="#073b61" x="134.2" y="99.1" width="1830" height="24.65" shape-rendering="crispEdges"/><rect fill="#1e1e1e" x="1964.2" y="99.1" width="12.2" height="24.65" shape-rendering="crispEdges"/><rect fill="#1e1e1e" x="0" y="123.5" width="12.2" height="24.65" shape-rendering="crispEdges"/><rect fill="#fea62b" x="12.2" y="123.5" width="61" height="24.65" shape-rendering="crispEdges"/><rect fill="#fea62b" x="73.2" y="123.5" width="61" height="24.65" shape-rendering="crispEdges"/><rect fill="#1a2127" x="134.2" y="123.5" width="1830" height="24.65" shape-rendering="crispEdges"/><rect fill="#1e1e1e" x="1964.2" y="123.5" width="12.2" height="24.65" shape-rendering="crispEdges"/><rect fill="#1e1e1e" x="0" y="147.9" width="12.2" height="24.65" shape-rendering="crispEdges"/><rect fill="#1e1e1e" x="12.2" y="147.9" width="1952" height="24.65" shape-rendering="crispEdges"/><rect fill="#1e1e1e" x="1964.2" y="147.9" width="12.2" height="24.65" shape-rendering="crispEdges"/><rect fill="#1e1e1e" x="0" y="172.3" width="12.2" height="24.65" shape-rendering="crispEdges"/><rect fill="#1e1e1e" x="12.2" y="172.3" width="1952" height="24.65" shape-rendering="crispEdges"/><rect fill="#1e1e1e" x="1964.2" y="172.3" width="12.2" height="24.65" shape-rendering="crispEdges"/><rect fill="#1e1e1e" x="0" y="196.7" width="12.2" height="24.65" shape-rendering="crispEdges"/><rect fill="#1e1e1e" x="12.2" y="196.7" width="1952" height="24.65" shape-rendering="crispEdges"/><rect fill="#1e1e1e" x="1964.2" y="196.7" width="12.2" height="24.65" shape-rendering="crispEdges"/><rect fill="#1e1e1e" x="0" y="221.1" width="12.2" height="24.65" shape-rendering="crispEdges"/><rect fill="#1e1e1e" x="12.2" y="221.1" width="1952" height="24.65" shape-rendering="crispEdges"/><rect fill="#1e1e1e" x="1964.2" y="221.1" width="12.2" height="24.65" shape-rendering="crispEdges"/><rect fill="#1e1e1e" x="0" y="245.5" width="12.2" height="24.65" shape-rendering="crispEdges"/><rect fill="#1e1e1e" x="12.2" y="245.5" width="1952" height="24.65" shape-rendering="crispEdges"/><rect fill="#1e1e1e" x="1964.2" y="245.5" width="12.2" height="24.65" shape-rendering="crispEdges"/><rect fill="#1e1e1e" x="0" y="269.9" width="12.2" height="24.65" shape-rendering="crispEdges"/><rect fill="#1e1e1e" x="12.2" y="269.9" width="1952" height="24.65" shape-rendering="crispEdges"/><rect fill="#1e1e1e" x="1964.2" y="269.9" width="12.2" height="24.65" shape-rendering="crispEdges"/><rect fill="#1e1e1e" x="0" y="294.3" width="12.2" height="24.65" shape-rendering="crispEdges"/><rect fill="#1e1e1e" x="12.2" y="294.3" width="1952" height="24.65" shape-rendering="crispEdges"/><rect fill="#1e1e1e" x="1964.2" y="294.3" width="12.2" height="24.65" shape-rendering="crispEdges"/><rect fill="#1e1e1e" x="0" y="318.7" width="12.2" height="24.65" shape-rendering="crispEdges"/><rect fill="#1e1e1e" x="12.2" y="318.7" width="1952" height="24.65" shape-rendering="crispEdges"/><rect fill="#1e1e1e" x="1964.2" y="318.7" width="12.2" height="24.65" shape-rendering="crispEdges"/><rect fill="#1e1e1e" x="0" y="343.1" width="170.8" height="24.65" shape-rendering="crispEdges"/><rect fill="#1e1e1e" x="170.8" y="343.1" width="1805.6" height="24.65" shape-rendering="crispEdges"/><rect fill="#1e1e1e" x="0" y="367.5" width="12.2" height="24.65" shape-rendering="crispEdges"/><rect fill="#1e1e1e" x="12.2" y="367.5" width="1952" height="24.65" shape-rendering="crispEdges"/><rect fill="#1e1e1e" x="1964.2" y="367.5" width="12.2" height="24.65" shape-rendering="crispEdges"/><rect fill="#1e1e1e" x="0" y="391.9" width="12.2" height="24.65" shape-rendering="crispEdges"/><rect fill="#004578" x="12.2" y="391.9" width="61" height="24.65" shape-rendering="crispEdges"/><rect fill="#004578" x="73.2" y="391.9" width="207.4" height="24.65" shape-rendering="crispEdges"/><rect fill="#073b61" x="280.6" y="391.9" width="1683.6" height="24.65" shape-rendering="crispEdges"/><rect fill="#1e1e1e" x="1964.2" y="391.9" width="12.2" height="24.65" shape-rendering="crispEdges"/><rect fill="#1e1e1e" x="0" y="416.3" width="12.2" height="24.65" shape-rendering="crispEdges"/><rect fill="#fea62b" x="12.2" y="416.3" width="61" height="24.65" shape-rendering="crispEdges"/><rect fill="#fea62b" x="73.2" y="416.3" width="207.4" height="24.65" shape-rendering="crispEdges"/><rect fill="#1a2127" x="280.6" y="416.3" width="1683.6" height="24.65" shape-rendering="crispEdges"/><rect fill="#1e1e1e" x="1964.2" y="416.3" width="12.2" height="24.65" shape-rendering="crispEdges"/><rect fill="#1e1e1e" x="0" y="440.7" width="12.2" height="24.65" shape-rendering="crispEdges"/><rect fill="#1e1e1e" x="12.2" y="440.7" width="61" height="24.65" shape-rendering="crispEdges"/><rect fill="#1e1e1e" x="73.2" y="440.7" width="207.4" height="24.65" shape-rendering="crispEdges"/><rect fill="#1e1e1e" x="280.6" y="440.7" width="1683.6" height="24.65" shape-rendering="crispEdges"/><rect fill="#1e1e1e" x="1964.2" y="440.7" width="12.2" height="24.65" shape-rendering="crispEdges"/><rect fill="#1e1e1e" x="0" y="465.1" width="12.2" height="24.65" shape-rendering="crispEdges"/><rect fill="#19232b" x="12.2" y="465.1" width="61" height="24.65" shape-rendering="crispEdges"/><rect fill="#19232b" x="73.2" y="465.1" width="207.4" height="24.65" shape-rendering="crispEdges"/><rect fill="#1a2127" x="280.6" y="465.1" width="1683.6" height="24.65" shape-rendering="crispEdges"/><rect fill="#1e1e1e" x="1964.2" y="465.1" width="12.2" height="24.65" shape-rendering="crispEdges"/><rect fill="#1e1e1e" x="0" y="489.5" width="12.2" height="24.65" shape-rendering="crispEdges"/><rect fill="#1e1e1e" x="12.2" y="489.5" width="61" height="24.65" shape-rendering="crispEdges"/><rect fill="#1e1e1e" x="73.2" y="489.5" width="207.4" height="24.65" shape-rendering="crispEdges"/><rect fill="#1e1e1e" x="280.6" y="489.5" width="1683.6" height="24.65" shape-rendering="crispEdges"/><rect fill="#1e1e1e" x="1964.2" y="489.5" width="12.2" height="24.65" shape-rendering="crispEdges"/><rect fill="#1e1e1e" x="0" y="513.9" width="12.2" height="24.65" shape-rendering="crispEdges"/><rect fill="#19232b" x="12.2" y="513.9" width="61" height="24.65" shape-rendering="crispEdges"/><rect fill="#19232b" x="73.2" y="513.9" width="207.4" height="24.65" shape-rendering="crispEdges"/><rect fill="#1a2127" x="280.6" y="513.9" width="1683.6" height="24.65" shape-rendering="crispEdges"/><rect fill="#1e1e1e" x="1964.2" y="513.9" width="12.2" height="24.65" shape-rendering="crispEdges"/><rect fill="#1e1e1e" x="0" y="538.3" width="12.2" height="24.65" shape-rendering="crispEdges"/><rect fill="#1e1e1e" x="12.2" y="538.3" width="61" height="24.65" shape-rendering="crispEdges"/><rect fill="#1e1e1e" x="73.2" y="538.3" width="207.4" height="24.65" shape-rendering="crispEdges"/><rect fill="#1e1e1e" x="280.6" y="538.3" width="1683.6" height="24.65" shape-rendering="crispEdges"/><rect fill="#1e1e1e" x="1964.2" y="538.3" width="12.2" height="24.65" shape-rendering="crispEdges"/><rect fill="#1e1e1e" x="0" y="562.7" width="12.2" height="24.65" shape-rendering="crispEdges"/><rect fill="#1e1e1e" x="12.2" y="562.7" width="1952" height="24.65" shape-rendering="crispEdges"/><rect fill="#1e1e1e" x="1964.2" y="562.7" width="12.2" height="24.65" shape-rendering="crispEdges"/><rect fill="#1e1e1e" x="0" y="587.1" width="12.2" height="24.65" shape-rendering="crispEdges"/><rect fill="#1e1e1e" x="12.2" y="587.1" width="1952" height="24.65" shape-rendering="crispEdges"/><rect fill="#1e1e1e" x="1964.2" y="587.1" width="12.2" height="24.65" shape-rendering="crispEdges"/><rect fill="#1e1e1e" x="0" y="611.5" width="12.2" height="24.65" shape-rendering="crispEdges"/><rect fill="#1e1e1e" x="12.2" y="611.5" width="1952" height="24.65" shape-rendering="crispEdges"/><rect fill="#1e1e1e" x="1964.2" y="611.5" width="12.2" height="24.65" shape-rendering="crispEdges"/><rect fill="#1e1e1e" x="0" y="635.9" width="12.2" height="24.65" shape-rendering="crispEdges"/><rect fill="#1e1e1e" x="12.2" y="635.9" width="1952" height="24.65" shape-rendering="crispEdges"/><rect fill="#1e1e1e" x="1964.2" y="635.9" width="12.2" height="24.65" shape-rendering="crispEdges"/><rect fill="#1e1e1e" x="0" y="660.3" width="170.8" height="24.65" shape-rendering="crispEdges"/><rect fill="#1e1e1e" x="170.8" y="660.3" width="1805.6" height="24.65" shape-rendering="crispEdges"/><rect fill="#1e1e1e" x="0" y="684.7" width="12.2" height="24.65" shape-rendering="crispEdges"/><rect fill="#1e1e1e" x="12.2" y="684.7" width="1952" height="24.65" shape-rendering="crispEdges"/><rect fill="#1e1e1e" x="1964.2" y="684.7" width="12.2" height="24.65" shape-rendering="crispEdges"/><rect fill="#1e1e1e" x="0" y="709.1" width="12.2" height="24.65" shape-rendering="crispEdges"/><rect fill="#004578" x="12.2" y="709.1" width="61" height="24.65" shape-rendering="crispEdges"/><rect fill="#004578" x="73.2" y="709.1" width="207.4" height="24.65" shape-rendering="crispEdges"/><rect fill="#073b61" x="280.6" y="709.1" width="1683.6" height="24.65" shape-rendering="crispEdges"/><rect fill="#1e1e1e" x="1964.2" y="709.1" width="12.2" height="24.65" shape-rendering="crispEdges"/><rect fill="#1e1e1e" x="0" y="733.5" width="12.2" height="24.65" shape-rendering="crispEdges"/><rect fill="#fea62b" x="12.2" y="733.5" width="61" height="24.65" shape-rendering="crispEdges"/><rect fill="#fea62b" x="73.2" y="733.5" width="207.4" height="24.65" shape-rendering="crispEdges"/><rect fill="#1a2127" x="280.6" y="733.5" width="1683.6" height="24.65" shape-rendering="crispEdges"/><rect fill="#1e1e1e" x="1964.2" y="733.5" width="12.2" height="24.65" shape-rendering="crispEdges"/><rect fill="#1e1e1e" x="0" y="757.9" width="12.2" height="24.65" shape-rendering="crispEdges"/><rect fill="#1e1e1e" x="12.2" y="757.9" width="61" height="24.65" shape-rendering="crispEdges"/><rect fill="#1e1e1e" x="73.2" y="757.9" width="207.4" height="24.65" shape-rendering="crispEdges"/><rect fill="#1e1e1e" x="280.6" y="757.9" width="1683.6" height="24.65" shape-rendering="crispEdges"/><rect fill="#1e1e1e" x="1964.2" y="757.9" width="12.2" height="24.65" shape-rendering="crispEdges"/><rect fill="#1e1e1e" x="0" y="782.3" width="12.2" height="24.65" shape-rendering="crispEdges"/><rect fill="#19232b" x="12.2" y="782.3" width="61" height="24.65" shape-rendering="crispEdges"/><rect fill="#19232b" x="73.2" y="782.3" width="207.4" height="24.65" shape-rendering="crispEdges"/><rect fill="#1a2127" x="280.6" y="782.3" width="1683.6" height="24.65" shape-rendering="crispEdges"/><rect fill="#1e1e1e" x="1964.2" y="782.3" width="12.2" height="24.65" shape-rendering="crispEdges"/><rect fill="#1e1e1e" x="0" y="806.7" width="12.2" height="24.65" shape-rendering="crispEdges"/><rect fill="#1e1e1e" x="12.2" y="806.7" width="61" height="24.65" shape-rendering="crispEdges"/><rect fill="#1e1e1e" x="73.2" y="806.7" width="207.4" height="24.65" shape-rendering="crispEdges"/><rect fill="#1e1e1e" x="280.6" y="806.7" width="1683.6" height="24.65" shape-rendering="crispEdges"/><rect fill="#1e1e1e" x="1964.2" y="806.7" width="12.2" height="24.65" shape-rendering="crispEdges"/><rect fill="#1e1e1e" x="0" y="831.1" width="12.2" height="24.65" shape-rendering="crispEdges"/><rect fill="#19232b" x="12.2" y="831.1" width="61" height="24.65" shape-rendering="crispEdges"/><rect fill="#19232b" x="73.2" y="831.1" width="207.4" height="24.65" shape-rendering="crispEdges"/><rect fill="#1a2127" x="280.6" y="831.1" width="1683.6" height="24.65" shape-rendering="crispEdges"/><rect fill="#1e1e1e" x="1964.2" y="831.1" width="12.2" height="24.65" shape-rendering="crispEdges"/><rect fill="#1e1e1e" x="0" y="855.5" width="12.2" height="24.65" shape-rendering="crispEdges"/><rect fill="#1e1e1e" x="12.2" y="855.5" width="61" height="24.65" shape-rendering="crispEdges"/><rect fill="#1e1e1e" x="73.2" y="855.5" width="207.4" height="24.65" shape-rendering="crispEdges"/><rect fill="#1e1e1e" x="280.6" y="855.5" width="1683.6" height="24.65" shape-rendering="crispEdges"/><rect fill="#1e1e1e" x="1964.2" y="855.5" width="12.2" height="24.65" shape-rendering="crispEdges"/><rect fill="#1e1e1e" x="0" y="879.9" width="12.2" height="24.65" shape-rendering="crispEdges"/><rect fill="#1e1e1e" x="12.2" y="879.9" width="1952" height="24.65" shape-rendering="crispEdges"/><rect fill="#1e1e1e" x="1964.2" y="879.9" width="12.2" height="24.65" shape-rendering="crispEdges"/><rect fill="#1e1e1e" x="0" y="904.3" width="12.2" height="24.65" shape-rendering="crispEdges"/><rect fill="#1e1e1e" x="12.2" y="904.3" width="1952" height="24.65" shape-rendering="crispEdges"/><rect fill="#1e1e1e" x="1964.2" y="904.3" width="12.2" height="24.65" shape-rendering="crispEdges"/><rect fill="#1e1e1e" x="0" y="928.7" width="12.2" height="24.65" shape-rendering="crispEdges"/><rect fill="#1e1e1e" x="12.2" y="928.7" width="1952" height="24.65" shape-rendering="crispEdges"/><rect fill="#1e1e1e" x="1964.2" y="928.7" width="12.2" height="24.65" shape-rendering="crispEdges"/><rect fill="#1e1e1e" x="0" y="953.1" width="12.2" height="24.65" shape-rendering="crispEdges"/><rect fill="#1e1e1e" x="12.2" y="953.1" width="1952" height="24.65" shape-rendering="crispEdges"/><rect fill="#1e1e1e" x="1964.2" y="953.1" width="12.2" height="24.65" shape-rendering="crispEdges"/><rect fill="#0053aa" x="0" y="977.5" width="36.6" height="24.65" shape-rendering="crispEdges"/><rect fill="#0178d4" x="36.6" y="977.5" width="73.2" height="24.65" shape-rendering="crispEdges"/><rect fill="#0178d4" x="109.8" y="977.5" width="1866.6" height="24.65" shape-rendering="crispEdges"/>
    <g class="terminal-1831001514-matrix">
    <text class="terminal-1831001514-r2" x="12.2" y="20" textLength="12.2" clip-path="url(#terminal-1831001514-line-0)">⭘</text><text class="terminal-1831001514-r2" x="780.8" y="20" textLength="231.8" clip-path="url(#terminal-1831001514-line-0)">Outliers&#160;Summary&#160;—&#160;</text><text class="terminal-1831001514-r3" x="1012.6" y="20" textLength="146.4" clip-path="url(#terminal-1831001514-line-0)">Runners:&#160;376</text><text class="terminal-1831001514-r4" x="1866.6" y="20" textLength="97.6" clip-path="url(#terminal-1831001514-line-0)">19:31:05</text><text class="terminal-1831001514-r1" x="1976.4" y="20" textLength="12.2" clip-path="url(#terminal-1831001514-line-0)">
</text><text class="terminal-1831001514-r1" x="1976.4" y="44.4" textLength="12.2" clip-path="url(#terminal-1831001514-line-1)">
</text><text class="terminal-1831001514-r5" x="0" y="68.8" textLength="158.6" clip-path="url(#terminal-1831001514-line-2)">Age&#160;Outliers:</text><text class="terminal-1831001514-r1" x="1976.4" y="68.8" textLength="12.2" clip-path="url(#terminal-1831001514-line-2)">
</text><text class="terminal-1831001514-r6" x="0" y="93.2" textLength="12.2" clip-path="url(#terminal-1831001514-line-3)">┌</text><text class="terminal-1831001514-r6" x="12.2" y="93.2" textLength="1952" clip-path="url(#terminal-1831001514-line-3)">────────────────────────────────────────────────────────────────────────────────────────────────────────────────────────────────────────────────────────────────</text><text class="terminal-1831001514-r6" x="1964.2" y="93.2" textLength="12.2" clip-path="url(#terminal-1831001514-line-3)">┐</text><text class="terminal-1831001514-r1" x="1976.4" y="93.2" textLength="12.2" clip-path="url(#terminal-1831001514-line-3)">
</text><text class="terminal-1831001514-r6" x="0" y="117.6" textLength="12.2" clip-path="url(#terminal-1831001514-line-4)">│</text><text class="terminal-1831001514-r7" x="12.2" y="117.6" textLength="61" clip-path="url(#terminal-1831001514-line-4)">&#160;Bib&#160;</text><text class="terminal-1831001514-r7" x="73.2" y="117.6" textLength="61" clip-path="url(#terminal-1831001514-line-4)">&#160;Age&#160;</text><text class="terminal-1831001514-r6" x="1964.2" y="117.6" textLength="12.2" clip-path="url(#terminal-1831001514-line-4)">│</text><text class="terminal-1831001514-r1" x="1976.4" y="117.6" textLength="12.2" clip-path="url(#terminal-1831001514-line-4)">
</text><text class="terminal-1831001514-r6" x="0" y="142" textLength="12.2" clip-path="url(#terminal-1831001514-line-5)">│</text><text class="terminal-1831001514-r9" x="12.2" y="142" textLength="61" clip-path="url(#terminal-1831001514-line-5)">&#160;626&#160;</text><text class="terminal-1831001514-r9" x="73.2" y="142" textLength="61" clip-path="url(#terminal-1831001514-line-5)">&#160;78&#160;&#160;</text><text class="terminal-1831001514-r6" x="1964.2" y="142" textLength="12.2" clip-path="url(#terminal-1831001514-line-5)">│</text><text class="terminal-1831001514-r1" x="1976.4" y="142" textLength="12.2" clip-path="url(#terminal-1831001514-line-5)">
</text><text class="terminal-1831001514-r6" x="0" y="166.4" textLength="12.2" clip-path="url(#terminal-1831001514-line-6)">│</text><text class="terminal-1831001514-r6" x="1964.2" y="166.4" textLength="12.2" clip-path="url(#terminal-1831001514-line-6)">│</text><text class="terminal-1831001514-r1" x="1976.4" y="166.4" textLength="12.2" clip-path="url(#terminal-1831001514-line-6)">
</text><text class="terminal-1831001514-r6" x="0" y="190.8" textLength="12.2" clip-path="url(#terminal-1831001514-line-7)">│</text><text class="terminal-1831001514-r6" x="1964.2" y="190.8" textLength="12.2" clip-path="url(#terminal-1831001514-line-7)">│</text><text class="terminal-1831001514-r1" x="1976.4" y="190.8" textLength="12.2" clip-path="url(#terminal-1831001514-line-7)">
</text><text class="terminal-1831001514-r6" x="0" y="215.2" textLength="12.2" clip-path="url(#terminal-1831001514-line-8)">│</text><text class="terminal-1831001514-r6" x="1964.2" y="215.2" textLength="12.2" clip-path="url(#terminal-1831001514-line-8)">│</text><text class="terminal-1831001514-r1" x="1976.4" y="215.2" textLength="12.2" clip-path="url(#terminal-1831001514-line-8)">
</text><text class="terminal-1831001514-r6" x="0" y="239.6" textLength="12.2" clip-path="url(#terminal-1831001514-line-9)">│</text><text class="terminal-1831001514-r6" x="1964.2" y="239.6" textLength="12.2" clip-path="url(#terminal-1831001514-line-9)">│</text><text class="terminal-1831001514-r1" x="1976.4" y="239.6" textLength="12.2" clip-path="url(#terminal-1831001514-line-9)">
</text><text class="terminal-1831001514-r6" x="0" y="264" textLength="12.2" clip-path="url(#terminal-1831001514-line-10)">│</text><text class="terminal-1831001514-r6" x="1964.2" y="264" textLength="12.2" clip-path="url(#terminal-1831001514-line-10)">│</text><text class="terminal-1831001514-r1" x="1976.4" y="264" textLength="12.2" clip-path="url(#terminal-1831001514-line-10)">
</text><text class="terminal-1831001514-r6" x="0" y="288.4" textLength="12.2" clip-path="url(#terminal-1831001514-line-11)">│</text><text class="terminal-1831001514-r6" x="1964.2" y="288.4" textLength="12.2" clip-path="url(#terminal-1831001514-line-11)">│</text><text class="terminal-1831001514-r1" x="1976.4" y="288.4" textLength="12.2" clip-path="url(#terminal-1831001514-line-11)">
</text><text class="terminal-1831001514-r6" x="0" y="312.8" textLength="12.2" clip-path="url(#terminal-1831001514-line-12)">│</text><text class="terminal-1831001514-r6" x="1964.2" y="312.8" textLength="12.2" clip-path="url(#terminal-1831001514-line-12)">│</text><text class="terminal-1831001514-r1" x="1976.4" y="312.8" textLength="12.2" clip-path="url(#terminal-1831001514-line-12)">
</text><text class="terminal-1831001514-r6" x="0" y="337.2" textLength="12.2" clip-path="url(#terminal-1831001514-line-13)">└</text><text class="terminal-1831001514-r6" x="12.2" y="337.2" textLength="1952" clip-path="url(#terminal-1831001514-line-13)">────────────────────────────────────────────────────────────────────────────────────────────────────────────────────────────────────────────────────────────────</text><text class="terminal-1831001514-r6" x="1964.2" y="337.2" textLength="12.2" clip-path="url(#terminal-1831001514-line-13)">┘</text><text class="terminal-1831001514-r1" x="1976.4" y="337.2" textLength="12.2" clip-path="url(#terminal-1831001514-line-13)">
</text><text class="terminal-1831001514-r5" x="0" y="361.6" textLength="170.8" clip-path="url(#terminal-1831001514-line-14)">Time&#160;Outliers:</text><text class="terminal-1831001514-r1" x="1976.4" y="361.6" textLength="12.2" clip-path="url(#terminal-1831001514-line-14)">
</text><text class="terminal-1831001514-r6" x="0" y="386" textLength="12.2" clip-path="url(#terminal-1831001514-line-15)">┌</text><text class="terminal-1831001514-r6" x="12.2" y="386" textLength="1952" clip-path="url(#terminal-1831001514-line-15)">────────────────────────────────────────────────────────────────────────────────────────────────────────────────────────────────────────────────────────────────</text><text class="terminal-1831001514-r6" x="1964.2" y="386" textLength="12.2" clip-path="url(#terminal-1831001514-line-15)">┐</text><text class="terminal-1831001514-r1" x="1976.4" y="386" textLength="12.2" clip-path="url(#terminal-1831001514-line-15)">
</text><text class="terminal-1831001514-r6" x="0" y="410.4" textLength="12.2" clip-path="url(#terminal-1831001514-line-16)">│</text><text class="terminal-1831001514-r7" x="12.2" y="410.4" textLength="61" clip-path="url(#terminal-1831001514-line-16)">&#160;Bib&#160;</text><text class="terminal-1831001514-r7" x="73.2" y="410.4" textLength="207.4" clip-path="url(#terminal-1831001514-line-16)">&#160;Time&#160;&#160;&#160;&#160;&#160;&#160;&#160;&#160;&#160;&#160;&#160;&#160;</text><text class="terminal-1831001514-r6" x="1964.2" y="410.4" textLength="12.2" clip-path="url(#terminal-1831001514-line-16)">│</text><text class="terminal-1831001514-r1" x="1976.4" y="410.4" textLength="12.2" clip-path="url(#terminal-1831001514-line-16)">
</text><text class="terminal-1831001514-r6" x="0" y="434.8" textLength="12.2" clip-path="url(#terminal-1831001514-line-17)">│</text><text class="terminal-1831001514-r9" x="12.2" y="434.8" textLength="61" clip-path="url(#terminal-1831001514-line-17)">&#160;95&#160;&#160;</text><text class="terminal-1831001514-r9" x="73.2" y="434.8" textLength="207.4" clip-path="url(#terminal-1831001514-line-17)">&#160;0&#160;days&#160;00:47:20&#160;</text><text class="terminal-1831001514-r6" x="1964.2" y="434.8" textLength="12.2" clip-path="url(#terminal-1831001514-line-17)">│</text><text class="terminal-1831001514-r1" x="1976.4" y="434.8" textLength="12.2" clip-path="url(#terminal-1831001514-line-17)">
</text><text class="terminal-1831001514-r6" x="0" y="459.2" textLength="12.2" clip-path="url(#terminal-1831001514-line-18)">│</text><text class="terminal-1831001514-r5" x="12.2" y="459.2" textLength="61" clip-path="url(#terminal-1831001514-line-18)">&#160;555&#160;</text><text class="terminal-1831001514-r5" x="73.2" y="459.2" textLength="207.4" clip-path="url(#terminal-1831001514-line-18)">&#160;0&#160;days&#160;00:55:17&#160;</text><text class="terminal-1831001514-r6" x="1964.2" y="459.2" textLength="12.2" clip-path="url(#terminal-1831001514-line-18)">│</text><text class="terminal-1831001514-r1" x="1976.4" y="459.2" textLength="12.2" clip-path="url(#terminal-1831001514-line-18)">
</text><text class="terminal-1831001514-r6" x="0" y="483.6" textLength="12.2" clip-path="url(#terminal-1831001514-line-19)">│</text><text class="terminal-1831001514-r10" x="12.2" y="483.6" textLength="61" clip-path="url(#terminal-1831001514-line-19)">&#160;557&#160;</text><text class="terminal-1831001514-r10" x="73.2" y="483.6" textLength="207.4" clip-path="url(#terminal-1831001514-line-19)">&#160;0&#160;days&#160;00:55:22&#160;</text><text class="terminal-1831001514-r6" x="1964.2" y="483.6" textLength="12.2" clip-path="url(#terminal-1831001514-line-19)">│</text><text class="terminal-1831001514-r1" x="1976.4" y="483.6" textLength="12.2" clip-path="url(#terminal-1831001514-line-19)">
</text><text class="terminal-1831001514-r6" x="0" y="508" textLength="12.2" clip-path="url(#terminal-1831001514-line-20)">│</text><text class="terminal-1831001514-r5" x="12.2" y="508" textLength="61" clip-path="url(#terminal-1831001514-line-20)">&#160;544&#160;</text><text class="terminal-1831001514-r5" x="73.2" y="508" textLength="207.4" clip-path="url(#terminal-1831001514-line-20)">&#160;0&#160;days&#160;01:00:10&#160;</text><text class="terminal-1831001514-r6" x="1964.2" y="508" textLength="12.2" clip-path="url(#terminal-1831001514-line-20)">│</text><text class="terminal-1831001514-r1" x="1976.4" y="508" textLength="12.2" clip-path="url(#terminal-1831001514-line-20)">
</text><text class="terminal-1831001514-r6" x="0" y="532.4" textLength="12.2" clip-path="url(#terminal-1831001514-line-21)">│</text><text class="terminal-1831001514-r10" x="12.2" y="532.4" textLength="61" clip-path="url(#terminal-1831001514-line-21)">&#160;545&#160;</text><text class="terminal-1831001514-r10" x="73.2" y="532.4" textLength="207.4" clip-path="url(#terminal-1831001514-line-21)">&#160;0&#160;days&#160;01:05:19&#160;</text><text class="terminal-1831001514-r6" x="1964.2" y="532.4" textLength="12.2" clip-path="url(#terminal-1831001514-line-21)">│</text><text class="terminal-1831001514-r1" x="1976.4" y="532.4" textLength="12.2" clip-path="url(#terminal-1831001514-line-21)">
</text><text class="terminal-1831001514-r6" x="0" y="556.8" textLength="12.2" clip-path="url(#terminal-1831001514-line-22)">│</text><text class="terminal-1831001514-r5" x="12.2" y="556.8" textLength="61" clip-path="url(#terminal-1831001514-line-22)">&#160;646&#160;</text><text class="terminal-1831001514-r5" x="73.2" y="556.8" textLength="207.4" clip-path="url(#terminal-1831001514-line-22)">&#160;0&#160;days&#160;01:06:48&#160;</text><text class="terminal-1831001514-r6" x="1964.2" y="556.8" textLength="12.2" clip-path="url(#terminal-1831001514-line-22)">│</text><text class="terminal-1831001514-r1" x="1976.4" y="556.8" textLength="12.2" clip-path="url(#terminal-1831001514-line-22)">
</text><text class="terminal-1831001514-r6" x="0" y="581.2" textLength="12.2" clip-path="url(#terminal-1831001514-line-23)">│</text><text class="terminal-1831001514-r6" x="1964.2" y="581.2" textLength="12.2" clip-path="url(#terminal-1831001514-line-23)">│</text><text class="terminal-1831001514-r1" x="1976.4" y="581.2" textLength="12.2" clip-path="url(#terminal-1831001514-line-23)">
</text><text class="terminal-1831001514-r6" x="0" y="605.6" textLength="12.2" clip-path="url(#terminal-1831001514-line-24)">│</text><text class="terminal-1831001514-r6" x="1964.2" y="605.6" textLength="12.2" clip-path="url(#terminal-1831001514-line-24)">│</text><text class="terminal-1831001514-r1" x="1976.4" y="605.6" textLength="12.2" clip-path="url(#terminal-1831001514-line-24)">
</text><text class="terminal-1831001514-r6" x="0" y="630" textLength="12.2" clip-path="url(#terminal-1831001514-line-25)">│</text><text class="terminal-1831001514-r6" x="1964.2" y="630" textLength="12.2" clip-path="url(#terminal-1831001514-line-25)">│</text><text class="terminal-1831001514-r1" x="1976.4" y="630" textLength="12.2" clip-path="url(#terminal-1831001514-line-25)">
</text><text class="terminal-1831001514-r6" x="0" y="654.4" textLength="12.2" clip-path="url(#terminal-1831001514-line-26)">└</text><text class="terminal-1831001514-r6" x="12.2" y="654.4" textLength="1952" clip-path="url(#terminal-1831001514-line-26)">────────────────────────────────────────────────────────────────────────────────────────────────────────────────────────────────────────────────────────────────</text><text class="terminal-1831001514-r6" x="1964.2" y="654.4" textLength="12.2" clip-path="url(#terminal-1831001514-line-26)">┘</text><text class="terminal-1831001514-r1" x="1976.4" y="654.4" textLength="12.2" clip-path="url(#terminal-1831001514-line-26)">
</text><text class="terminal-1831001514-r5" x="0" y="678.8" textLength="170.8" clip-path="url(#terminal-1831001514-line-27)">Pace&#160;Outliers:</text><text class="terminal-1831001514-r1" x="1976.4" y="678.8" textLength="12.2" clip-path="url(#terminal-1831001514-line-27)">
</text><text class="terminal-1831001514-r6" x="0" y="703.2" textLength="12.2" clip-path="url(#terminal-1831001514-line-28)">┌</text><text class="terminal-1831001514-r6" x="12.2" y="703.2" textLength="1952" clip-path="url(#terminal-1831001514-line-28)">────────────────────────────────────────────────────────────────────────────────────────────────────────────────────────────────────────────────────────────────</text><text class="terminal-1831001514-r6" x="1964.2" y="703.2" textLength="12.2" clip-path="url(#terminal-1831001514-line-28)">┐</text><text class="terminal-1831001514-r1" x="1976.4" y="703.2" textLength="12.2" clip-path="url(#terminal-1831001514-line-28)">
</text><text class="terminal-1831001514-r6" x="0" y="727.6" textLength="12.2" clip-path="url(#terminal-1831001514-line-29)">│</text><text class="terminal-1831001514-r7" x="12.2" y="727.6" textLength="61" clip-path="url(#terminal-1831001514-line-29)">&#160;Bib&#160;</text><text class="terminal-1831001514-r7" x="73.2" y="727.6" textLength="207.4" clip-path="url(#terminal-1831001514-line-29)">&#160;Pace&#160;&#160;&#160;&#160;&#160;&#160;&#160;&#160;&#160;&#160;&#160;&#160;</text><text class="terminal-1831001514-r6" x="1964.2" y="727.6" textLength="12.2" clip-path="url(#terminal-1831001514-line-29)">│</text><text class="terminal-1831001514-r1" x="1976.4" y="727.6" textLength="12.2" clip-path="url(#terminal-1831001514-line-29)">
</text><text class="terminal-1831001514-r6" x="0" y="752" textLength="12.2" clip-path="url(#terminal-1831001514-line-30)">│</text><text class="terminal-1831001514-r9" x="12.2" y="752" textLength="61" clip-path="url(#terminal-1831001514-line-30)">&#160;95&#160;&#160;</text><text class="terminal-1831001514-r9" x="73.2" y="752" textLength="207.4" clip-path="url(#terminal-1831001514-line-30)">&#160;0&#160;days&#160;03:56:40&#160;</text><text class="terminal-1831001514-r6" x="1964.2" y="752" textLength="12.2" clip-path="url(#terminal-1831001514-line-30)">│</text><text class="terminal-1831001514-r1" x="1976.4" y="752" textLength="12.2" clip-path="url(#terminal-1831001514-line-30)">
</text><text class="terminal-1831001514-r6" x="0" y="776.4" textLength="12.2" clip-path="url(#terminal-1831001514-line-31)">│</text><text class="terminal-1831001514-r5" x="12.2" y="776.4" textLength="61" clip-path="url(#terminal-1831001514-line-31)">&#160;555&#160;</text><text class="terminal-1831001514-r5" x="73.2" y="776.4" textLength="207.4" clip-path="url(#terminal-1831001514-line-31)">&#160;0&#160;days&#160;04:36:25&#160;</text><text class="terminal-1831001514-r6" x="1964.2" y="776.4" textLength="12.2" clip-path="url(#terminal-1831001514-line-31)">│</text><text class="terminal-1831001514-r1" x="1976.4" y="776.4" textLength="12.2" clip-path="url(#terminal-1831001514-line-31)">
</text><text class="terminal-1831001514-r6" x="0" y="800.8" textLength="12.2" clip-path="url(#terminal-1831001514-line-32)">│</text><text class="terminal-1831001514-r10" x="12.2" y="800.8" textLength="61" clip-path="url(#terminal-1831001514-line-32)">&#160;557&#160;</text><text class="terminal-1831001514-r10" x="73.2" y="800.8" textLength="207.4" clip-path="url(#terminal-1831001514-line-32)">&#160;0&#160;days&#160;04:36:50&#160;</text><text class="terminal-1831001514-r6" x="1964.2" y="800.8" textLength="12.2" clip-path="url(#terminal-1831001514-line-32)">│</text><text class="terminal-1831001514-r1" x="1976.4" y="800.8" textLength="12.2" clip-path="url(#terminal-1831001514-line-32)">
</text><text class="terminal-1831001514-r6" x="0" y="825.2" textLength="12.2" clip-path="url(#terminal-1831001514-line-33)">│</text><text class="terminal-1831001514-r5" x="12.2" y="825.2" textLength="61" clip-path="url(#terminal-1831001514-line-33)">&#160;544&#160;</text><text class="terminal-1831001514-r5" x="73.2" y="825.2" textLength="207.4" clip-path="url(#terminal-1831001514-line-33)">&#160;0&#160;days&#160;05:00:50&#160;</text><text class="terminal-1831001514-r6" x="1964.2" y="825.2" textLength="12.2" clip-path="url(#terminal-1831001514-line-33)">│</text><text class="terminal-1831001514-r1" x="1976.4" y="825.2" textLength="12.2" clip-path="url(#terminal-1831001514-line-33)">
</text><text class="terminal-1831001514-r6" x="0" y="849.6" textLength="12.2" clip-path="url(#terminal-1831001514-line-34)">│</text><text class="terminal-1831001514-r10" x="12.2" y="849.6" textLength="61" clip-path="url(#terminal-1831001514-line-34)">&#160;545&#160;</text><text class="terminal-1831001514-r10" x="73.2" y="849.6" textLength="207.4" clip-path="url(#terminal-1831001514-line-34)">&#160;0&#160;days&#160;05:26:35&#160;</text><text class="terminal-1831001514-r6" x="1964.2" y="849.6" textLength="12.2" clip-path="url(#terminal-1831001514-line-34)">│</text><text class="terminal-1831001514-r1" x="1976.4" y="849.6" textLength="12.2" clip-path="url(#terminal-1831001514-line-34)">
</text><text class="terminal-1831001514-r6" x="0" y="874" textLength="12.2" clip-path="url(#terminal-1831001514-line-35)">│</text><text class="terminal-1831001514-r5" x="12.2" y="874" textLength="61" clip-path="url(#terminal-1831001514-line-35)">&#160;646&#160;</text><text class="terminal-1831001514-r5" x="73.2" y="874" textLength="207.4" clip-path="url(#terminal-1831001514-line-35)">&#160;0&#160;days&#160;05:34:00&#160;</text><text class="terminal-1831001514-r6" x="1964.2" y="874" textLength="12.2" clip-path="url(#terminal-1831001514-line-35)">│</text><text class="terminal-1831001514-r1" x="1976.4" y="874" textLength="12.2" clip-path="url(#terminal-1831001514-line-35)">
</text><text class="terminal-1831001514-r6" x="0" y="898.4" textLength="12.2" clip-path="url(#terminal-1831001514-line-36)">│</text><text class="terminal-1831001514-r6" x="1964.2" y="898.4" textLength="12.2" clip-path="url(#terminal-1831001514-line-36)">│</text><text class="terminal-1831001514-r1" x="1976.4" y="898.4" textLength="12.2" clip-path="url(#terminal-1831001514-line-36)">
</text><text class="terminal-1831001514-r6" x="0" y="922.8" textLength="12.2" clip-path="url(#terminal-1831001514-line-37)">│</text><text class="terminal-1831001514-r6" x="1964.2" y="922.8" textLength="12.2" clip-path="url(#terminal-1831001514-line-37)">│</text><text class="terminal-1831001514-r1" x="1976.4" y="922.8" textLength="12.2" clip-path="url(#terminal-1831001514-line-37)">
</text><text class="terminal-1831001514-r6" x="0" y="947.2" textLength="12.2" clip-path="url(#terminal-1831001514-line-38)">│</text><text class="terminal-1831001514-r6" x="1964.2" y="947.2" textLength="12.2" clip-path="url(#terminal-1831001514-line-38)">│</text><text class="terminal-1831001514-r1" x="1976.4" y="947.2" textLength="12.2" clip-path="url(#terminal-1831001514-line-38)">
</text><text class="terminal-1831001514-r6" x="0" y="971.6" textLength="12.2" clip-path="url(#terminal-1831001514-line-39)">└</text><text class="terminal-1831001514-r6" x="12.2" y="971.6" textLength="1952" clip-path="url(#terminal-1831001514-line-39)">────────────────────────────────────────────────────────────────────────────────────────────────────────────────────────────────────────────────────────────────</text><text class="terminal-1831001514-r6" x="1964.2" y="971.6" textLength="12.2" clip-path="url(#terminal-1831001514-line-39)">┘</text><text class="terminal-1831001514-r1" x="1976.4" y="971.6" textLength="12.2" clip-path="url(#terminal-1831001514-line-39)">
</text><text class="terminal-1831001514-r11" x="0" y="996" textLength="36.6" clip-path="url(#terminal-1831001514-line-40)">&#160;Q&#160;</text><text class="terminal-1831001514-r12" x="36.6" y="996" textLength="73.2" clip-path="url(#terminal-1831001514-line-40)">&#160;Quit&#160;</text>
    </g>
    </g>
</svg>
